<mxfile host="app.diagrams.net" agent="Mozilla/5.0 (Windows NT 10.0; Win64; x64) AppleWebKit/537.36 (KHTML, like Gecko) Chrome/131.0.0.0 Safari/537.36 Edg/131.0.0.0" version="24.9.1">
  <diagram name="第 1 页" id="US9uIOEYUIHqThvWRjGj">
    <mxGraphModel dx="1042" dy="565" grid="1" gridSize="10" guides="1" tooltips="1" connect="1" arrows="1" fold="1" page="1" pageScale="1" pageWidth="827" pageHeight="1169" math="0" shadow="0">
      <root>
        <mxCell id="0" />
        <mxCell id="1" parent="0" />
        <mxCell id="3rne-YWLAK8L41fZsYoj-34" value="loop" style="shape=umlFrame;whiteSpace=wrap;html=1;pointerEvents=0;" vertex="1" parent="1">
          <mxGeometry x="90" y="340" width="610" height="120" as="geometry" />
        </mxCell>
        <mxCell id="3rne-YWLAK8L41fZsYoj-53" value="" style="edgeStyle=orthogonalEdgeStyle;rounded=0;orthogonalLoop=1;jettySize=auto;html=1;" edge="1" parent="1" source="3rne-YWLAK8L41fZsYoj-35" target="3rne-YWLAK8L41fZsYoj-34">
          <mxGeometry relative="1" as="geometry" />
        </mxCell>
        <mxCell id="3rne-YWLAK8L41fZsYoj-35" value="全量方法元数据" style="shape=note;whiteSpace=wrap;html=1;backgroundOutline=1;darkOpacity=0.05;" vertex="1" parent="1">
          <mxGeometry x="740" y="375" width="150" height="50" as="geometry" />
        </mxCell>
        <mxCell id="3rne-YWLAK8L41fZsYoj-43" value="loop" style="shape=umlFrame;whiteSpace=wrap;html=1;pointerEvents=0;" vertex="1" parent="1">
          <mxGeometry x="90" y="550" width="600" height="140" as="geometry" />
        </mxCell>
        <mxCell id="3rne-YWLAK8L41fZsYoj-47" value="" style="shape=umlLifeline;perimeter=lifelinePerimeter;whiteSpace=wrap;html=1;container=1;dropTarget=0;collapsible=0;recursiveResize=0;outlineConnect=0;portConstraint=eastwest;newEdgeStyle={&quot;curved&quot;:0,&quot;rounded&quot;:0};participant=umlActor;" vertex="1" parent="1">
          <mxGeometry x="30" y="80" width="20" height="680" as="geometry" />
        </mxCell>
        <mxCell id="3rne-YWLAK8L41fZsYoj-67" value="" style="html=1;points=[[0,0,0,0,5],[0,1,0,0,-5],[1,0,0,0,5],[1,1,0,0,-5]];perimeter=orthogonalPerimeter;outlineConnect=0;targetShapes=umlLifeline;portConstraint=eastwest;newEdgeStyle={&quot;curved&quot;:0,&quot;rounded&quot;:0};" vertex="1" parent="3rne-YWLAK8L41fZsYoj-47">
          <mxGeometry x="5" y="60" width="10" height="600" as="geometry" />
        </mxCell>
        <mxCell id="3rne-YWLAK8L41fZsYoj-48" value=":ES" style="shape=umlLifeline;perimeter=lifelinePerimeter;whiteSpace=wrap;html=1;container=1;dropTarget=0;collapsible=0;recursiveResize=0;outlineConnect=0;portConstraint=eastwest;newEdgeStyle={&quot;curved&quot;:0,&quot;rounded&quot;:0};" vertex="1" parent="1">
          <mxGeometry x="250" y="80" width="100" height="680" as="geometry" />
        </mxCell>
        <mxCell id="3rne-YWLAK8L41fZsYoj-61" value="" style="html=1;points=[[0,0,0,0,5],[0,1,0,0,-5],[1,0,0,0,5],[1,1,0,0,-5]];perimeter=orthogonalPerimeter;outlineConnect=0;targetShapes=umlLifeline;portConstraint=eastwest;newEdgeStyle={&quot;curved&quot;:0,&quot;rounded&quot;:0};" vertex="1" parent="3rne-YWLAK8L41fZsYoj-48">
          <mxGeometry x="45" y="90" width="10" height="40" as="geometry" />
        </mxCell>
        <mxCell id="3rne-YWLAK8L41fZsYoj-50" value=":HBase" style="shape=umlLifeline;perimeter=lifelinePerimeter;whiteSpace=wrap;html=1;container=1;dropTarget=0;collapsible=0;recursiveResize=0;outlineConnect=0;portConstraint=eastwest;newEdgeStyle={&quot;curved&quot;:0,&quot;rounded&quot;:0};" vertex="1" parent="1">
          <mxGeometry x="370" y="80" width="100" height="680" as="geometry" />
        </mxCell>
        <mxCell id="3rne-YWLAK8L41fZsYoj-64" value="" style="html=1;points=[[0,0,0,0,5],[0,1,0,0,-5],[1,0,0,0,5],[1,1,0,0,-5]];perimeter=orthogonalPerimeter;outlineConnect=0;targetShapes=umlLifeline;portConstraint=eastwest;newEdgeStyle={&quot;curved&quot;:0,&quot;rounded&quot;:0};" vertex="1" parent="3rne-YWLAK8L41fZsYoj-50">
          <mxGeometry x="44" y="150" width="10" height="40" as="geometry" />
        </mxCell>
        <mxCell id="3rne-YWLAK8L41fZsYoj-51" value=":Redis" style="shape=umlLifeline;perimeter=lifelinePerimeter;whiteSpace=wrap;html=1;container=1;dropTarget=0;collapsible=0;recursiveResize=0;outlineConnect=0;portConstraint=eastwest;newEdgeStyle={&quot;curved&quot;:0,&quot;rounded&quot;:0};" vertex="1" parent="1">
          <mxGeometry x="500" y="80" width="100" height="680" as="geometry" />
        </mxCell>
        <mxCell id="3rne-YWLAK8L41fZsYoj-77" value="" style="html=1;points=[[0,0,0,0,5],[0,1,0,0,-5],[1,0,0,0,5],[1,1,0,0,-5]];perimeter=orthogonalPerimeter;outlineConnect=0;targetShapes=umlLifeline;portConstraint=eastwest;newEdgeStyle={&quot;curved&quot;:0,&quot;rounded&quot;:0};" vertex="1" parent="3rne-YWLAK8L41fZsYoj-51">
          <mxGeometry x="45" y="500" width="10" height="50" as="geometry" />
        </mxCell>
        <mxCell id="3rne-YWLAK8L41fZsYoj-52" value=":Mysql" style="shape=umlLifeline;perimeter=lifelinePerimeter;whiteSpace=wrap;html=1;container=1;dropTarget=0;collapsible=0;recursiveResize=0;outlineConnect=0;portConstraint=eastwest;newEdgeStyle={&quot;curved&quot;:0,&quot;rounded&quot;:0};" vertex="1" parent="1">
          <mxGeometry x="620" y="80" width="100" height="680" as="geometry" />
        </mxCell>
        <mxCell id="3rne-YWLAK8L41fZsYoj-60" value=":Web" style="shape=umlLifeline;perimeter=lifelinePerimeter;whiteSpace=wrap;html=1;container=1;dropTarget=0;collapsible=0;recursiveResize=0;outlineConnect=0;portConstraint=eastwest;newEdgeStyle={&quot;curved&quot;:0,&quot;rounded&quot;:0};" vertex="1" parent="1">
          <mxGeometry x="110" y="80" width="100" height="680" as="geometry" />
        </mxCell>
        <mxCell id="3rne-YWLAK8L41fZsYoj-57" value="" style="html=1;points=[[0,0,0,0,5],[0,1,0,0,-5],[1,0,0,0,5],[1,1,0,0,-5]];perimeter=orthogonalPerimeter;outlineConnect=0;targetShapes=umlLifeline;portConstraint=eastwest;newEdgeStyle={&quot;curved&quot;:0,&quot;rounded&quot;:0};" vertex="1" parent="3rne-YWLAK8L41fZsYoj-60">
          <mxGeometry x="45" y="80" width="10" height="140" as="geometry" />
        </mxCell>
        <mxCell id="3rne-YWLAK8L41fZsYoj-71" value="" style="html=1;points=[[0,0,0,0,5],[0,1,0,0,-5],[1,0,0,0,5],[1,1,0,0,-5]];perimeter=orthogonalPerimeter;outlineConnect=0;targetShapes=umlLifeline;portConstraint=eastwest;newEdgeStyle={&quot;curved&quot;:0,&quot;rounded&quot;:0};" vertex="1" parent="3rne-YWLAK8L41fZsYoj-60">
          <mxGeometry x="45" y="280" width="10" height="80" as="geometry" />
        </mxCell>
        <mxCell id="3rne-YWLAK8L41fZsYoj-80" value="" style="html=1;points=[[0,0,0,0,5],[0,1,0,0,-5],[1,0,0,0,5],[1,1,0,0,-5]];perimeter=orthogonalPerimeter;outlineConnect=0;targetShapes=umlLifeline;portConstraint=eastwest;newEdgeStyle={&quot;curved&quot;:0,&quot;rounded&quot;:0};" vertex="1" parent="3rne-YWLAK8L41fZsYoj-60">
          <mxGeometry x="45" y="400" width="10" height="240" as="geometry" />
        </mxCell>
        <mxCell id="3rne-YWLAK8L41fZsYoj-79" value="返回上下游的方法id" style="html=1;verticalAlign=bottom;endArrow=open;dashed=1;endSize=8;curved=0;rounded=0;exitX=0;exitY=1;exitDx=0;exitDy=-5;" edge="1" source="3rne-YWLAK8L41fZsYoj-77" parent="1">
          <mxGeometry relative="1" as="geometry">
            <mxPoint x="159.5" y="625" as="targetPoint" />
          </mxGeometry>
        </mxCell>
        <mxCell id="3rne-YWLAK8L41fZsYoj-59" value="return" style="html=1;verticalAlign=bottom;endArrow=open;dashed=1;endSize=8;curved=0;rounded=0;exitX=0;exitY=1;exitDx=0;exitDy=-5;" edge="1" source="3rne-YWLAK8L41fZsYoj-57" parent="1" target="3rne-YWLAK8L41fZsYoj-67">
          <mxGeometry relative="1" as="geometry">
            <mxPoint x="90" y="235" as="targetPoint" />
          </mxGeometry>
        </mxCell>
        <mxCell id="3rne-YWLAK8L41fZsYoj-63" value="返回traceId" style="html=1;verticalAlign=bottom;endArrow=open;dashed=1;endSize=8;curved=0;rounded=0;exitX=0;exitY=1;exitDx=0;exitDy=-5;" edge="1" source="3rne-YWLAK8L41fZsYoj-61" parent="1" target="3rne-YWLAK8L41fZsYoj-60">
          <mxGeometry relative="1" as="geometry">
            <mxPoint x="225" y="245" as="targetPoint" />
          </mxGeometry>
        </mxCell>
        <mxCell id="3rne-YWLAK8L41fZsYoj-66" value="trace日志" style="html=1;verticalAlign=bottom;endArrow=open;dashed=1;endSize=8;curved=0;rounded=0;exitX=0;exitY=1;exitDx=0;exitDy=-5;" edge="1" source="3rne-YWLAK8L41fZsYoj-64" parent="1" target="3rne-YWLAK8L41fZsYoj-60">
          <mxGeometry x="-0.002" relative="1" as="geometry">
            <mxPoint x="344" y="265" as="targetPoint" />
            <mxPoint as="offset" />
          </mxGeometry>
        </mxCell>
        <mxCell id="3rne-YWLAK8L41fZsYoj-82" value="缓存方法元数据" style="html=1;verticalAlign=bottom;startArrow=oval;startFill=1;endArrow=block;startSize=8;curved=0;rounded=0;" edge="1" parent="1" target="3rne-YWLAK8L41fZsYoj-52">
          <mxGeometry width="60" relative="1" as="geometry">
            <mxPoint x="170" y="380" as="sourcePoint" />
            <mxPoint x="230" y="380" as="targetPoint" />
          </mxGeometry>
        </mxCell>
        <mxCell id="3rne-YWLAK8L41fZsYoj-83" value="return" style="html=1;verticalAlign=bottom;endArrow=open;dashed=1;endSize=8;curved=0;rounded=0;" edge="1" parent="1" target="3rne-YWLAK8L41fZsYoj-60">
          <mxGeometry relative="1" as="geometry">
            <mxPoint x="670" y="420" as="sourcePoint" />
            <mxPoint x="590" y="420" as="targetPoint" />
          </mxGeometry>
        </mxCell>
        <mxCell id="3rne-YWLAK8L41fZsYoj-84" value="拓扑查询" style="html=1;verticalAlign=bottom;startArrow=oval;startFill=1;endArrow=block;startSize=8;curved=0;rounded=0;" edge="1" parent="1" target="3rne-YWLAK8L41fZsYoj-60">
          <mxGeometry width="60" relative="1" as="geometry">
            <mxPoint x="50" y="500" as="sourcePoint" />
            <mxPoint x="110" y="500" as="targetPoint" />
          </mxGeometry>
        </mxCell>
        <mxCell id="3rne-YWLAK8L41fZsYoj-85" value="return" style="html=1;verticalAlign=bottom;endArrow=open;dashed=1;endSize=8;curved=0;rounded=0;" edge="1" parent="1">
          <mxGeometry relative="1" as="geometry">
            <mxPoint x="150" y="710" as="sourcePoint" />
            <mxPoint x="45" y="710" as="targetPoint" />
          </mxGeometry>
        </mxCell>
        <mxCell id="3rne-YWLAK8L41fZsYoj-86" value="查找上下游关联关系" style="html=1;verticalAlign=bottom;startArrow=oval;startFill=1;endArrow=block;startSize=8;curved=0;rounded=0;" edge="1" parent="1">
          <mxGeometry width="60" relative="1" as="geometry">
            <mxPoint x="170" y="580" as="sourcePoint" />
            <mxPoint x="549.5" y="580" as="targetPoint" />
          </mxGeometry>
        </mxCell>
        <mxCell id="3rne-YWLAK8L41fZsYoj-101" value="从缓存中获取方法元数据" style="endArrow=block;endFill=1;html=1;edgeStyle=orthogonalEdgeStyle;align=left;verticalAlign=top;rounded=0;curved=1;" edge="1" parent="1">
          <mxGeometry x="-1" relative="1" as="geometry">
            <mxPoint x="170" y="510" as="sourcePoint" />
            <mxPoint x="170" y="540" as="targetPoint" />
            <Array as="points">
              <mxPoint x="170" y="500" />
              <mxPoint x="240" y="500" />
            </Array>
          </mxGeometry>
        </mxCell>
        <mxCell id="3rne-YWLAK8L41fZsYoj-104" value="从缓存中获取方法元数据" style="endArrow=block;endFill=1;html=1;edgeStyle=orthogonalEdgeStyle;align=left;verticalAlign=top;rounded=0;curved=1;" edge="1" parent="1">
          <mxGeometry x="-1" relative="1" as="geometry">
            <mxPoint x="170" y="650" as="sourcePoint" />
            <mxPoint x="170" y="680" as="targetPoint" />
            <Array as="points">
              <mxPoint x="170" y="640" />
              <mxPoint x="240" y="640" />
            </Array>
          </mxGeometry>
        </mxCell>
        <mxCell id="3rne-YWLAK8L41fZsYoj-105" value="trace查询" style="html=1;verticalAlign=bottom;startArrow=oval;startFill=1;endArrow=block;startSize=8;curved=0;rounded=0;" edge="1" parent="1" target="3rne-YWLAK8L41fZsYoj-60">
          <mxGeometry width="60" relative="1" as="geometry">
            <mxPoint x="50" y="160" as="sourcePoint" />
            <mxPoint x="110" y="160" as="targetPoint" />
          </mxGeometry>
        </mxCell>
        <mxCell id="3rne-YWLAK8L41fZsYoj-106" value="搜索" style="html=1;verticalAlign=bottom;startArrow=oval;startFill=1;endArrow=block;startSize=8;curved=0;rounded=0;" edge="1" parent="1" target="3rne-YWLAK8L41fZsYoj-48">
          <mxGeometry x="0.0039" width="60" relative="1" as="geometry">
            <mxPoint x="170" y="170" as="sourcePoint" />
            <mxPoint x="230" y="170" as="targetPoint" />
            <mxPoint as="offset" />
          </mxGeometry>
        </mxCell>
        <mxCell id="3rne-YWLAK8L41fZsYoj-107" value="查询" style="html=1;verticalAlign=bottom;startArrow=oval;startFill=1;endArrow=block;startSize=8;curved=0;rounded=0;" edge="1" parent="1" target="3rne-YWLAK8L41fZsYoj-50">
          <mxGeometry width="60" relative="1" as="geometry">
            <mxPoint x="170" y="240" as="sourcePoint" />
            <mxPoint x="230" y="240" as="targetPoint" />
          </mxGeometry>
        </mxCell>
      </root>
    </mxGraphModel>
  </diagram>
</mxfile>
